<?xml version="1.0" encoding="utf-8"?>
<!-- Generator: Adobe Illustrator 23.0.2, SVG Export Plug-In . SVG Version: 6.00 Build 0)  -->
<svg version="1.1" id="Layer_21" xmlns="http://www.w3.org/2000/svg" xmlns:xlink="http://www.w3.org/1999/xlink" x="0px" y="0px"
	 viewBox="0 0 24 24" style="enable-background:new 0 0 24 24;" xml:space="preserve">
<title></title>
<path id="linkedin" d="M3,9h4v11H3V9z M5,3c1.1,0,2,0.9,2,2S6.1,7,5,7S3,6.1,3,5S3.9,3,5,3z M16.5,8.3c-1.4,0-2.7,0.6-3.5,1.7V9H9
	v11h4v-7c0-1.1,0.9-2,2-2s2,0.9,2,2v7h4v-7.3C21,10.3,19,8.3,16.5,8.3z"/>
</svg>
